# xmcd
#
# Track frame offsets: 
#        150
#        15936
#        30562
#        48850
#        68365
#
# Disc length: 1091 seconds
#
# Revision: 0
# Processed by: cddbd v1.5.2PL0 Copyright (c) Steve Scherf et al.
# Submitted via: ExactAudioCopy v1.1
#
DISCID=29044105
DTITLE=Them Dirty Roses - Them Dirty Roses
DYEAR=1900
DGENRE=Southern Rock
TTITLE0=Cocaine And Whiskey
TTITLE1=What Your Daddy Doesn't Know
TTITLE2=Whiskey In My Cup
TTITLE3=Shake It
TTITLE4=Beer Cans And Tire Swings
EXTD=
EXTT0=
EXTT1=
EXTT2=
EXTT3=
EXTT4=
PLAYORDER=
